<svg width="64" height="64" viewBox="0 0 24 24" fill="none" xmlns="http://www.w3.org/2000/svg">
  <path d="M11 15H13V9H11V15ZM12 2C6.48 2 2 6.48 2 12C2 17.52 6.48 22 12 22C17.52 22 22 17.52 22 12C22 6.48 17.52 2 12 2ZM12 20C7.59 20 4 16.41 4 12C4 7.59 7.59 4 12 4C16.41 4 20 7.59 20 12C20 16.41 16.41 20 12 20ZM12 16L16 12H13V8H11V12H8L12 16Z" fill="#0078D4">
    <animateTransform attributeName="transform" type="translate" values="0,-2; 0,2; 0,-2" dur="1s" repeatCount="indefinite" />
  </path>
</svg>
